<?xml version="1.0" encoding="UTF-8"?>
<svg width="100" height="100" viewBox="0 0 100 100" fill="none" xmlns="http://www.w3.org/2000/svg">
  <path d="M50 10C45 10 40 15 40 25V70C40 75 35 80 30 80C25 80 20 75 20 70V50C20 47.2386 17.7614 45 15 45C12.2386 45 10 47.2386 10 50V70C10 85 20 90 30 90C40 90 50 85 50 70V25C50 20 55 20 55 25V70C55 85 65 90 75 90C85 90 95 85 95 70V50C95 47.2386 92.7614 45 90 45C87.2386 45 85 47.2386 85 50V70C85 75 80 80 75 80C70 80 65 75 65 70V25C65 15 60 10 55 10H50Z" fill="#FAF2E7"/>
</svg>
